<mxfile host="Electron" modified="2023-08-29T01:43:19.855Z" agent="Mozilla/5.0 (Windows NT 10.0; Win64; x64) AppleWebKit/537.36 (KHTML, like Gecko) draw.io/21.6.8 Chrome/114.0.5735.289 Electron/25.5.0 Safari/537.36" etag="RVC0x_JvYlXB5SFUYDRZ" version="21.6.8" type="device">
  <diagram name="BP_UI" id="jdbMnuQPYJpSlZmubfTC">
    <mxGraphModel dx="864" dy="556" grid="1" gridSize="10" guides="1" tooltips="1" connect="1" arrows="1" fold="1" page="1" pageScale="1" pageWidth="827" pageHeight="1169" math="0" shadow="0">
      <root>
        <mxCell id="0" />
        <mxCell id="1" parent="0" />
        <mxCell id="pnfSxAVqBlWatADq52Bv-8" style="edgeStyle=orthogonalEdgeStyle;rounded=0;orthogonalLoop=1;jettySize=auto;html=1;entryX=0;entryY=0.5;entryDx=0;entryDy=0;" edge="1" parent="1" source="odYE0l-GBs4BgsAeKGHD-1" target="odYE0l-GBs4BgsAeKGHD-51">
          <mxGeometry relative="1" as="geometry" />
        </mxCell>
        <mxCell id="odYE0l-GBs4BgsAeKGHD-1" value="" style="rounded=0;whiteSpace=wrap;html=1;" parent="1" vertex="1">
          <mxGeometry x="250" y="620" width="520" height="200" as="geometry" />
        </mxCell>
        <mxCell id="odYE0l-GBs4BgsAeKGHD-2" value="Your Name" style="rounded=1;whiteSpace=wrap;html=1;" parent="1" vertex="1">
          <mxGeometry x="370" y="640" width="150" height="20" as="geometry" />
        </mxCell>
        <mxCell id="odYE0l-GBs4BgsAeKGHD-3" value="MTC sec" style="rounded=1;whiteSpace=wrap;html=1;" parent="1" vertex="1">
          <mxGeometry x="402.5" y="700" width="85" height="20" as="geometry" />
        </mxCell>
        <mxCell id="odYE0l-GBs4BgsAeKGHD-4" value="P000123223ASCID" style="rounded=1;whiteSpace=wrap;html=1;" parent="1" vertex="1">
          <mxGeometry x="370" y="730" width="150" height="20" as="geometry" />
        </mxCell>
        <mxCell id="odYE0l-GBs4BgsAeKGHD-5" value="#1" style="rounded=1;whiteSpace=wrap;html=1;" parent="1" vertex="1">
          <mxGeometry x="370" y="670" width="50" height="20" as="geometry" />
        </mxCell>
        <mxCell id="odYE0l-GBs4BgsAeKGHD-6" value="#2" style="rounded=1;whiteSpace=wrap;html=1;" parent="1" vertex="1">
          <mxGeometry x="470" y="670" width="50" height="20" as="geometry" />
        </mxCell>
        <mxCell id="odYE0l-GBs4BgsAeKGHD-7" value="+" style="rounded=1;whiteSpace=wrap;html=1;fillColor=#FFFFFF;fontColor=#000000;" parent="1" vertex="1">
          <mxGeometry x="430" y="670" width="30" height="20" as="geometry" />
        </mxCell>
        <mxCell id="odYE0l-GBs4BgsAeKGHD-8" value="Programer Name" style="text;html=1;strokeColor=none;fillColor=none;align=left;verticalAlign=middle;whiteSpace=wrap;rounded=0;" parent="1" vertex="1">
          <mxGeometry x="270" y="635" width="100" height="30" as="geometry" />
        </mxCell>
        <mxCell id="odYE0l-GBs4BgsAeKGHD-9" value="Operation" style="text;html=1;strokeColor=none;fillColor=none;align=left;verticalAlign=middle;whiteSpace=wrap;rounded=0;" parent="1" vertex="1">
          <mxGeometry x="270" y="665" width="100" height="30" as="geometry" />
        </mxCell>
        <mxCell id="odYE0l-GBs4BgsAeKGHD-10" value="Maximum Estimated Time" style="text;html=1;strokeColor=none;fillColor=none;align=left;verticalAlign=middle;whiteSpace=wrap;rounded=0;" parent="1" vertex="1">
          <mxGeometry x="270" y="695" width="130" height="30" as="geometry" />
        </mxCell>
        <mxCell id="odYE0l-GBs4BgsAeKGHD-11" value="Program ID" style="text;html=1;strokeColor=none;fillColor=none;align=left;verticalAlign=middle;whiteSpace=wrap;rounded=0;" parent="1" vertex="1">
          <mxGeometry x="270" y="725" width="100" height="30" as="geometry" />
        </mxCell>
        <mxCell id="odYE0l-GBs4BgsAeKGHD-12" value="Pending Batch&#39;s" style="text;html=1;strokeColor=none;fillColor=none;align=center;verticalAlign=middle;whiteSpace=wrap;rounded=0;" parent="1" vertex="1">
          <mxGeometry x="580" y="670" width="90" height="30" as="geometry" />
        </mxCell>
        <mxCell id="odYE0l-GBs4BgsAeKGHD-13" value="#" style="rounded=1;whiteSpace=wrap;html=1;" parent="1" vertex="1">
          <mxGeometry x="680" y="675" width="60" height="20" as="geometry" />
        </mxCell>
        <mxCell id="odYE0l-GBs4BgsAeKGHD-14" value="" style="rounded=0;whiteSpace=wrap;html=1;" parent="1" vertex="1">
          <mxGeometry x="60" y="620" width="160" height="350" as="geometry" />
        </mxCell>
        <mxCell id="odYE0l-GBs4BgsAeKGHD-15" value="&lt;h1&gt;Batch Processing Design&lt;/h1&gt;&lt;div&gt;&lt;b&gt;Functionality:&lt;/b&gt;&lt;/div&gt;&lt;div&gt;&lt;ol&gt;&lt;li&gt;Text field (user)&lt;/li&gt;&lt;li&gt;This have 2 numbers fields and 1 drop select (user)&lt;/li&gt;&lt;li&gt;This have the MET for the operation (program)&lt;/li&gt;&lt;li&gt;Unique ID for program (user or program)&lt;/li&gt;&lt;li&gt;Pause simulation (user)&lt;/li&gt;&lt;li&gt;Reset form (user)&lt;/li&gt;&lt;li&gt;Randomize/auto fill form (user)&lt;/li&gt;&lt;li&gt;Add process to a batch (user)&lt;/li&gt;&lt;li&gt;Time passed since program start (program)&lt;/li&gt;&lt;li&gt;Pending batch to process (program)&lt;/li&gt;&lt;li&gt;Button that opens the Batch on execution window (user)&lt;/li&gt;&lt;li&gt;Button that opens the Finished processes window (user)&lt;/li&gt;&lt;/ol&gt;&lt;/div&gt;" style="text;html=1;strokeColor=none;fillColor=none;spacing=5;spacingTop=-20;whiteSpace=wrap;overflow=hidden;rounded=0;" parent="1" vertex="1">
          <mxGeometry x="260" y="860" width="350" height="260" as="geometry" />
        </mxCell>
        <mxCell id="odYE0l-GBs4BgsAeKGHD-17" value="&lt;font style=&quot;font-size: 9px;&quot;&gt;ID: P0001DSDAID&lt;br&gt;MET: 3s&lt;/font&gt;" style="shape=process;whiteSpace=wrap;html=1;backgroundOutline=1;" parent="1" vertex="1">
          <mxGeometry x="60" y="780" width="160" height="80" as="geometry" />
        </mxCell>
        <mxCell id="odYE0l-GBs4BgsAeKGHD-18" value="&lt;font style=&quot;font-size: 9px;&quot;&gt;ID: P0001DSDBID&lt;br&gt;MET: 2s&lt;/font&gt;" style="shape=process;whiteSpace=wrap;html=1;backgroundOutline=1;" parent="1" vertex="1">
          <mxGeometry x="60" y="700" width="160" height="80" as="geometry" />
        </mxCell>
        <mxCell id="odYE0l-GBs4BgsAeKGHD-19" value="&lt;font style=&quot;font-size: 9px;&quot;&gt;ID: P0001DSDCID&lt;br&gt;MET: 1s&lt;/font&gt;" style="shape=process;whiteSpace=wrap;html=1;backgroundOutline=1;" parent="1" vertex="1">
          <mxGeometry x="60" y="620" width="160" height="80" as="geometry" />
        </mxCell>
        <mxCell id="odYE0l-GBs4BgsAeKGHD-20" value="&lt;font style=&quot;font-size: 9px;&quot;&gt;Name: Tony&lt;br&gt;Operation: 10 Power 5&lt;br&gt;MTC: 5s&lt;br&gt;ID: P0001DSD9ID&lt;br&gt;TT: 0s&lt;br&gt;ETC: 5s&lt;br&gt;&lt;/font&gt;" style="shape=process;whiteSpace=wrap;html=1;backgroundOutline=1;" parent="1" vertex="1">
          <mxGeometry x="60" y="860" width="160" height="110" as="geometry" />
        </mxCell>
        <mxCell id="odYE0l-GBs4BgsAeKGHD-22" value="" style="rounded=0;whiteSpace=wrap;html=1;" parent="1" vertex="1">
          <mxGeometry x="620" y="860" width="160" height="160" as="geometry" />
        </mxCell>
        <mxCell id="odYE0l-GBs4BgsAeKGHD-24" value="&lt;font style=&quot;font-size: 9px;&quot;&gt;ID: P0001DSD8ID&lt;br&gt;10 + 10&lt;br&gt;20&lt;br&gt;&lt;/font&gt;" style="shape=process;whiteSpace=wrap;html=1;backgroundOutline=1;" parent="1" vertex="1">
          <mxGeometry x="620" y="940" width="160" height="80" as="geometry" />
        </mxCell>
        <mxCell id="odYE0l-GBs4BgsAeKGHD-25" value="Time Passed" style="text;html=1;strokeColor=none;fillColor=none;align=center;verticalAlign=middle;whiteSpace=wrap;rounded=0;" parent="1" vertex="1">
          <mxGeometry x="580" y="640" width="90" height="30" as="geometry" />
        </mxCell>
        <mxCell id="odYE0l-GBs4BgsAeKGHD-26" value="#" style="rounded=1;whiteSpace=wrap;html=1;" parent="1" vertex="1">
          <mxGeometry x="680" y="645" width="60" height="20" as="geometry" />
        </mxCell>
        <mxCell id="odYE0l-GBs4BgsAeKGHD-27" value="&lt;font color=&quot;#000000&quot;&gt;BATCH #2&lt;/font&gt;" style="rounded=0;whiteSpace=wrap;html=1;fillColor=#FFFFFF;" parent="1" vertex="1">
          <mxGeometry x="620" y="930" width="160" height="10" as="geometry" />
        </mxCell>
        <mxCell id="odYE0l-GBs4BgsAeKGHD-29" value="ADD" style="rounded=1;whiteSpace=wrap;html=1;fillColor=#FFFFFF;fontColor=#000000;" parent="1" vertex="1">
          <mxGeometry x="440" y="770" width="70" height="20" as="geometry" />
        </mxCell>
        <mxCell id="odYE0l-GBs4BgsAeKGHD-30" value="RAND" style="rounded=1;whiteSpace=wrap;html=1;fillColor=#FFFFFF;fontColor=#000000;" parent="1" vertex="1">
          <mxGeometry x="390" y="770" width="40" height="20" as="geometry" />
        </mxCell>
        <mxCell id="odYE0l-GBs4BgsAeKGHD-31" value="RESET" style="rounded=1;whiteSpace=wrap;html=1;fillColor=#FFFFFF;fontColor=#000000;" parent="1" vertex="1">
          <mxGeometry x="340" y="770" width="40" height="20" as="geometry" />
        </mxCell>
        <mxCell id="odYE0l-GBs4BgsAeKGHD-32" value="Pause" style="rounded=1;whiteSpace=wrap;html=1;fillColor=#FFFFFF;fontColor=#000000;" parent="1" vertex="1">
          <mxGeometry x="290" y="770" width="40" height="20" as="geometry" />
        </mxCell>
        <mxCell id="odYE0l-GBs4BgsAeKGHD-33" value="" style="endArrow=none;html=1;rounded=0;" parent="1" edge="1">
          <mxGeometry width="50" height="50" relative="1" as="geometry">
            <mxPoint x="550" y="810" as="sourcePoint" />
            <mxPoint x="550" y="630" as="targetPoint" />
          </mxGeometry>
        </mxCell>
        <mxCell id="odYE0l-GBs4BgsAeKGHD-34" value="Finished Processes" style="rounded=1;whiteSpace=wrap;html=1;fillColor=#FFFFFF;fontColor=#000000;" parent="1" vertex="1">
          <mxGeometry x="580" y="750" width="160" height="20" as="geometry" />
        </mxCell>
        <mxCell id="odYE0l-GBs4BgsAeKGHD-35" value="Batch on Execution" style="rounded=1;whiteSpace=wrap;html=1;fillColor=#FFFFFF;fontColor=#000000;" parent="1" vertex="1">
          <mxGeometry x="580" y="710" width="160" height="20" as="geometry" />
        </mxCell>
        <mxCell id="odYE0l-GBs4BgsAeKGHD-36" value="&amp;nbsp;BP&amp;nbsp; &amp;nbsp;Batch Processing - MT Panel" style="rounded=0;whiteSpace=wrap;html=1;align=left;" parent="1" vertex="1">
          <mxGeometry x="250" y="600" width="460" height="20" as="geometry" />
        </mxCell>
        <mxCell id="odYE0l-GBs4BgsAeKGHD-37" value="-" style="rounded=0;whiteSpace=wrap;html=1;align=center;" parent="1" vertex="1">
          <mxGeometry x="710" y="600" width="20" height="20" as="geometry" />
        </mxCell>
        <mxCell id="odYE0l-GBs4BgsAeKGHD-38" value="x" style="rounded=0;whiteSpace=wrap;html=1;align=center;" parent="1" vertex="1">
          <mxGeometry x="750" y="600" width="20" height="20" as="geometry" />
        </mxCell>
        <mxCell id="odYE0l-GBs4BgsAeKGHD-39" value="[]" style="rounded=0;whiteSpace=wrap;html=1;align=center;" parent="1" vertex="1">
          <mxGeometry x="730" y="600" width="20" height="20" as="geometry" />
        </mxCell>
        <mxCell id="odYE0l-GBs4BgsAeKGHD-45" value="-" style="rounded=0;whiteSpace=wrap;html=1;align=center;" parent="1" vertex="1">
          <mxGeometry x="720" y="840" width="20" height="20" as="geometry" />
        </mxCell>
        <mxCell id="odYE0l-GBs4BgsAeKGHD-46" value="x" style="rounded=0;whiteSpace=wrap;html=1;align=center;" parent="1" vertex="1">
          <mxGeometry x="760" y="840" width="20" height="20" as="geometry" />
        </mxCell>
        <mxCell id="odYE0l-GBs4BgsAeKGHD-47" value="[]" style="rounded=0;whiteSpace=wrap;html=1;align=center;" parent="1" vertex="1">
          <mxGeometry x="740" y="840" width="20" height="20" as="geometry" />
        </mxCell>
        <mxCell id="odYE0l-GBs4BgsAeKGHD-51" value="&amp;nbsp;BP Finished Pr..." style="rounded=0;whiteSpace=wrap;html=1;align=left;" parent="1" vertex="1">
          <mxGeometry x="620" y="840" width="100" height="20" as="geometry" />
        </mxCell>
        <mxCell id="odYE0l-GBs4BgsAeKGHD-56" value="-" style="rounded=0;whiteSpace=wrap;html=1;align=center;" parent="1" vertex="1">
          <mxGeometry x="160" y="600" width="20" height="20" as="geometry" />
        </mxCell>
        <mxCell id="odYE0l-GBs4BgsAeKGHD-57" value="x" style="rounded=0;whiteSpace=wrap;html=1;align=center;" parent="1" vertex="1">
          <mxGeometry x="200" y="600" width="20" height="20" as="geometry" />
        </mxCell>
        <mxCell id="odYE0l-GBs4BgsAeKGHD-58" value="[]" style="rounded=0;whiteSpace=wrap;html=1;align=center;" parent="1" vertex="1">
          <mxGeometry x="180" y="600" width="20" height="20" as="geometry" />
        </mxCell>
        <mxCell id="odYE0l-GBs4BgsAeKGHD-59" value="&amp;nbsp;BP Actual Batch" style="rounded=0;whiteSpace=wrap;html=1;align=left;" parent="1" vertex="1">
          <mxGeometry x="60" y="600" width="100" height="20" as="geometry" />
        </mxCell>
        <mxCell id="odYE0l-GBs4BgsAeKGHD-61" value="(1)" style="text;html=1;strokeColor=none;fillColor=none;align=center;verticalAlign=middle;whiteSpace=wrap;rounded=0;fontColor=#CC0000;" parent="1" vertex="1">
          <mxGeometry x="250" y="640" width="25" height="20" as="geometry" />
        </mxCell>
        <mxCell id="odYE0l-GBs4BgsAeKGHD-62" value="(2)" style="text;html=1;strokeColor=none;fillColor=none;align=center;verticalAlign=middle;whiteSpace=wrap;rounded=0;fontColor=#CC0000;" parent="1" vertex="1">
          <mxGeometry x="250" y="670" width="25" height="20" as="geometry" />
        </mxCell>
        <mxCell id="pnfSxAVqBlWatADq52Bv-9" style="edgeStyle=orthogonalEdgeStyle;rounded=0;orthogonalLoop=1;jettySize=auto;html=1;entryX=1;entryY=0.5;entryDx=0;entryDy=0;" edge="1" parent="1" source="odYE0l-GBs4BgsAeKGHD-63" target="odYE0l-GBs4BgsAeKGHD-18">
          <mxGeometry relative="1" as="geometry" />
        </mxCell>
        <mxCell id="odYE0l-GBs4BgsAeKGHD-63" value="(3)" style="text;html=1;strokeColor=none;fillColor=none;align=center;verticalAlign=middle;whiteSpace=wrap;rounded=0;fontColor=#CC0000;" parent="1" vertex="1">
          <mxGeometry x="250" y="695" width="25" height="20" as="geometry" />
        </mxCell>
        <mxCell id="odYE0l-GBs4BgsAeKGHD-64" value="(4)" style="text;html=1;strokeColor=none;fillColor=none;align=center;verticalAlign=middle;whiteSpace=wrap;rounded=0;fontColor=#CC0000;" parent="1" vertex="1">
          <mxGeometry x="250" y="730" width="25" height="20" as="geometry" />
        </mxCell>
        <mxCell id="odYE0l-GBs4BgsAeKGHD-65" value="(9)" style="text;html=1;strokeColor=none;fillColor=none;align=center;verticalAlign=middle;whiteSpace=wrap;rounded=0;fontColor=#CC0000;" parent="1" vertex="1">
          <mxGeometry x="570" y="645" width="25" height="20" as="geometry" />
        </mxCell>
        <mxCell id="odYE0l-GBs4BgsAeKGHD-66" value="(10)" style="text;html=1;strokeColor=none;fillColor=none;align=center;verticalAlign=middle;whiteSpace=wrap;rounded=0;fontColor=#CC0000;" parent="1" vertex="1">
          <mxGeometry x="560" y="675" width="25" height="20" as="geometry" />
        </mxCell>
        <mxCell id="odYE0l-GBs4BgsAeKGHD-67" value="(11)" style="text;html=1;strokeColor=none;fillColor=none;align=center;verticalAlign=middle;whiteSpace=wrap;rounded=0;fontColor=#CC0000;" parent="1" vertex="1">
          <mxGeometry x="555" y="710" width="25" height="20" as="geometry" />
        </mxCell>
        <mxCell id="odYE0l-GBs4BgsAeKGHD-68" value="(5)" style="text;html=1;strokeColor=none;fillColor=none;align=center;verticalAlign=middle;whiteSpace=wrap;rounded=0;fontColor=#CC0000;" parent="1" vertex="1">
          <mxGeometry x="297.5" y="790" width="25" height="20" as="geometry" />
        </mxCell>
        <mxCell id="odYE0l-GBs4BgsAeKGHD-69" value="(6)" style="text;html=1;strokeColor=none;fillColor=none;align=center;verticalAlign=middle;whiteSpace=wrap;rounded=0;fontColor=#CC0000;" parent="1" vertex="1">
          <mxGeometry x="347.5" y="790" width="25" height="20" as="geometry" />
        </mxCell>
        <mxCell id="odYE0l-GBs4BgsAeKGHD-70" value="(7)" style="text;html=1;strokeColor=none;fillColor=none;align=center;verticalAlign=middle;whiteSpace=wrap;rounded=0;fontColor=#CC0000;" parent="1" vertex="1">
          <mxGeometry x="395" y="790" width="25" height="20" as="geometry" />
        </mxCell>
        <mxCell id="odYE0l-GBs4BgsAeKGHD-71" value="(8)" style="text;html=1;strokeColor=none;fillColor=none;align=center;verticalAlign=middle;whiteSpace=wrap;rounded=0;fontColor=#CC0000;" parent="1" vertex="1">
          <mxGeometry x="460" y="790" width="25" height="20" as="geometry" />
        </mxCell>
        <mxCell id="odYE0l-GBs4BgsAeKGHD-72" value="(12)" style="text;html=1;strokeColor=none;fillColor=none;align=center;verticalAlign=middle;whiteSpace=wrap;rounded=0;fontColor=#CC0000;" parent="1" vertex="1">
          <mxGeometry x="555" y="750" width="25" height="20" as="geometry" />
        </mxCell>
        <mxCell id="pnfSxAVqBlWatADq52Bv-7" style="edgeStyle=orthogonalEdgeStyle;rounded=0;orthogonalLoop=1;jettySize=auto;html=1;entryX=0.5;entryY=0;entryDx=0;entryDy=0;" edge="1" parent="1" source="pnfSxAVqBlWatADq52Bv-1" target="odYE0l-GBs4BgsAeKGHD-36">
          <mxGeometry relative="1" as="geometry" />
        </mxCell>
        <mxCell id="pnfSxAVqBlWatADq52Bv-53" style="edgeStyle=orthogonalEdgeStyle;rounded=0;orthogonalLoop=1;jettySize=auto;html=1;entryX=0;entryY=0.5;entryDx=0;entryDy=0;" edge="1" parent="1" source="pnfSxAVqBlWatADq52Bv-1" target="pnfSxAVqBlWatADq52Bv-15">
          <mxGeometry relative="1" as="geometry" />
        </mxCell>
        <mxCell id="pnfSxAVqBlWatADq52Bv-1" value="" style="rounded=0;whiteSpace=wrap;html=1;" vertex="1" parent="1">
          <mxGeometry x="250" y="260" width="260" height="200" as="geometry" />
        </mxCell>
        <mxCell id="pnfSxAVqBlWatADq52Bv-2" value="&amp;nbsp;BP&amp;nbsp; &amp;nbsp;Batch Processing&amp;nbsp; - Main M..." style="rounded=0;whiteSpace=wrap;html=1;align=left;" vertex="1" parent="1">
          <mxGeometry x="250" y="240" width="200" height="20" as="geometry" />
        </mxCell>
        <mxCell id="pnfSxAVqBlWatADq52Bv-3" value="-" style="rounded=0;whiteSpace=wrap;html=1;align=center;" vertex="1" parent="1">
          <mxGeometry x="450" y="240" width="20" height="20" as="geometry" />
        </mxCell>
        <mxCell id="pnfSxAVqBlWatADq52Bv-4" value="x" style="rounded=0;whiteSpace=wrap;html=1;align=center;" vertex="1" parent="1">
          <mxGeometry x="490" y="240" width="20" height="20" as="geometry" />
        </mxCell>
        <mxCell id="pnfSxAVqBlWatADq52Bv-5" value="[]" style="rounded=0;whiteSpace=wrap;html=1;align=center;" vertex="1" parent="1">
          <mxGeometry x="470" y="240" width="20" height="20" as="geometry" />
        </mxCell>
        <mxCell id="pnfSxAVqBlWatADq52Bv-10" value="Batch Preparation Mode" style="rounded=1;whiteSpace=wrap;html=1;fillColor=#FFFFFF;fontColor=#000000;" vertex="1" parent="1">
          <mxGeometry x="300" y="350" width="160" height="20" as="geometry" />
        </mxCell>
        <mxCell id="pnfSxAVqBlWatADq52Bv-11" value="Batch Threading Mode" style="rounded=1;whiteSpace=wrap;html=1;fillColor=#FFFFFF;fontColor=#000000;" vertex="1" parent="1">
          <mxGeometry x="300" y="390" width="160" height="20" as="geometry" />
        </mxCell>
        <mxCell id="pnfSxAVqBlWatADq52Bv-12" value="BATCH&lt;br&gt;PROCESSING" style="text;html=1;align=center;verticalAlign=middle;resizable=0;points=[];autosize=1;strokeColor=none;fillColor=none;fontStyle=1;fontSize=26;" vertex="1" parent="1">
          <mxGeometry x="285" y="270" width="200" height="80" as="geometry" />
        </mxCell>
        <mxCell id="pnfSxAVqBlWatADq52Bv-13" value="BTM" style="text;html=1;align=center;verticalAlign=middle;resizable=0;points=[];autosize=1;strokeColor=none;fillColor=none;" vertex="1" parent="1">
          <mxGeometry x="380" y="500" width="50" height="30" as="geometry" />
        </mxCell>
        <mxCell id="pnfSxAVqBlWatADq52Bv-62" style="edgeStyle=orthogonalEdgeStyle;rounded=0;orthogonalLoop=1;jettySize=auto;html=1;entryX=1;entryY=0.5;entryDx=0;entryDy=0;" edge="1" parent="1" source="pnfSxAVqBlWatADq52Bv-15" target="odYE0l-GBs4BgsAeKGHD-1">
          <mxGeometry relative="1" as="geometry" />
        </mxCell>
        <mxCell id="pnfSxAVqBlWatADq52Bv-15" value="" style="rounded=0;whiteSpace=wrap;html=1;" vertex="1" parent="1">
          <mxGeometry x="640" y="270" width="520" height="200" as="geometry" />
        </mxCell>
        <mxCell id="pnfSxAVqBlWatADq52Bv-16" value="Your Name" style="rounded=1;whiteSpace=wrap;html=1;" vertex="1" parent="1">
          <mxGeometry x="760" y="290" width="150" height="20" as="geometry" />
        </mxCell>
        <mxCell id="pnfSxAVqBlWatADq52Bv-17" value="MTC sec" style="rounded=1;whiteSpace=wrap;html=1;" vertex="1" parent="1">
          <mxGeometry x="792.5" y="350" width="85" height="20" as="geometry" />
        </mxCell>
        <mxCell id="pnfSxAVqBlWatADq52Bv-18" value="P000123223ASCID" style="rounded=1;whiteSpace=wrap;html=1;" vertex="1" parent="1">
          <mxGeometry x="760" y="380" width="150" height="20" as="geometry" />
        </mxCell>
        <mxCell id="pnfSxAVqBlWatADq52Bv-19" value="#1" style="rounded=1;whiteSpace=wrap;html=1;" vertex="1" parent="1">
          <mxGeometry x="760" y="320" width="50" height="20" as="geometry" />
        </mxCell>
        <mxCell id="pnfSxAVqBlWatADq52Bv-20" value="#2" style="rounded=1;whiteSpace=wrap;html=1;" vertex="1" parent="1">
          <mxGeometry x="860" y="320" width="50" height="20" as="geometry" />
        </mxCell>
        <mxCell id="pnfSxAVqBlWatADq52Bv-21" value="+" style="rounded=1;whiteSpace=wrap;html=1;fillColor=#FFFFFF;fontColor=#000000;" vertex="1" parent="1">
          <mxGeometry x="820" y="320" width="30" height="20" as="geometry" />
        </mxCell>
        <mxCell id="pnfSxAVqBlWatADq52Bv-22" value="Programer Name" style="text;html=1;strokeColor=none;fillColor=none;align=left;verticalAlign=middle;whiteSpace=wrap;rounded=0;" vertex="1" parent="1">
          <mxGeometry x="660" y="285" width="100" height="30" as="geometry" />
        </mxCell>
        <mxCell id="pnfSxAVqBlWatADq52Bv-23" value="Operation" style="text;html=1;strokeColor=none;fillColor=none;align=left;verticalAlign=middle;whiteSpace=wrap;rounded=0;" vertex="1" parent="1">
          <mxGeometry x="660" y="315" width="100" height="30" as="geometry" />
        </mxCell>
        <mxCell id="pnfSxAVqBlWatADq52Bv-24" value="Maximum Estimated Time" style="text;html=1;strokeColor=none;fillColor=none;align=left;verticalAlign=middle;whiteSpace=wrap;rounded=0;" vertex="1" parent="1">
          <mxGeometry x="660" y="345" width="130" height="30" as="geometry" />
        </mxCell>
        <mxCell id="pnfSxAVqBlWatADq52Bv-25" value="Program ID" style="text;html=1;strokeColor=none;fillColor=none;align=left;verticalAlign=middle;whiteSpace=wrap;rounded=0;" vertex="1" parent="1">
          <mxGeometry x="660" y="375" width="100" height="30" as="geometry" />
        </mxCell>
        <mxCell id="pnfSxAVqBlWatADq52Bv-30" value="ADD" style="rounded=1;whiteSpace=wrap;html=1;fillColor=#FFFFFF;fontColor=#000000;" vertex="1" parent="1">
          <mxGeometry x="830" y="420" width="70" height="20" as="geometry" />
        </mxCell>
        <mxCell id="pnfSxAVqBlWatADq52Bv-31" value="RAND" style="rounded=1;whiteSpace=wrap;html=1;fillColor=#FFFFFF;fontColor=#000000;" vertex="1" parent="1">
          <mxGeometry x="780" y="420" width="40" height="20" as="geometry" />
        </mxCell>
        <mxCell id="pnfSxAVqBlWatADq52Bv-32" value="RESET" style="rounded=1;whiteSpace=wrap;html=1;fillColor=#FFFFFF;fontColor=#000000;" vertex="1" parent="1">
          <mxGeometry x="730" y="420" width="40" height="20" as="geometry" />
        </mxCell>
        <mxCell id="pnfSxAVqBlWatADq52Bv-37" value="&amp;nbsp;BP&amp;nbsp; &amp;nbsp;Batch Processing - MT Panel" style="rounded=0;whiteSpace=wrap;html=1;align=left;" vertex="1" parent="1">
          <mxGeometry x="640" y="250" width="460" height="20" as="geometry" />
        </mxCell>
        <mxCell id="pnfSxAVqBlWatADq52Bv-38" value="-" style="rounded=0;whiteSpace=wrap;html=1;align=center;" vertex="1" parent="1">
          <mxGeometry x="1100" y="250" width="20" height="20" as="geometry" />
        </mxCell>
        <mxCell id="pnfSxAVqBlWatADq52Bv-39" value="x" style="rounded=0;whiteSpace=wrap;html=1;align=center;" vertex="1" parent="1">
          <mxGeometry x="1140" y="250" width="20" height="20" as="geometry" />
        </mxCell>
        <mxCell id="pnfSxAVqBlWatADq52Bv-40" value="[]" style="rounded=0;whiteSpace=wrap;html=1;align=center;" vertex="1" parent="1">
          <mxGeometry x="1120" y="250" width="20" height="20" as="geometry" />
        </mxCell>
        <mxCell id="pnfSxAVqBlWatADq52Bv-54" value="BPM" style="text;html=1;align=center;verticalAlign=middle;resizable=0;points=[];autosize=1;strokeColor=none;fillColor=none;" vertex="1" parent="1">
          <mxGeometry x="580" y="340" width="50" height="30" as="geometry" />
        </mxCell>
        <mxCell id="pnfSxAVqBlWatADq52Bv-55" value="Processes Added" style="text;html=1;strokeColor=none;fillColor=none;align=left;verticalAlign=middle;whiteSpace=wrap;rounded=0;" vertex="1" parent="1">
          <mxGeometry x="960" y="285" width="100" height="30" as="geometry" />
        </mxCell>
        <mxCell id="pnfSxAVqBlWatADq52Bv-56" value="Batch Needed" style="text;html=1;strokeColor=none;fillColor=none;align=left;verticalAlign=middle;whiteSpace=wrap;rounded=0;" vertex="1" parent="1">
          <mxGeometry x="960" y="315" width="100" height="30" as="geometry" />
        </mxCell>
        <mxCell id="pnfSxAVqBlWatADq52Bv-57" value="#" style="rounded=1;whiteSpace=wrap;html=1;" vertex="1" parent="1">
          <mxGeometry x="1080" y="290" width="50" height="20" as="geometry" />
        </mxCell>
        <mxCell id="pnfSxAVqBlWatADq52Bv-58" value="#" style="rounded=1;whiteSpace=wrap;html=1;" vertex="1" parent="1">
          <mxGeometry x="1080" y="320" width="50" height="20" as="geometry" />
        </mxCell>
        <mxCell id="pnfSxAVqBlWatADq52Bv-59" value="" style="endArrow=none;html=1;rounded=0;" edge="1" parent="1">
          <mxGeometry width="50" height="50" relative="1" as="geometry">
            <mxPoint x="940" y="460" as="sourcePoint" />
            <mxPoint x="940" y="280" as="targetPoint" />
          </mxGeometry>
        </mxCell>
        <mxCell id="pnfSxAVqBlWatADq52Bv-61" value="Start Simulation" style="rounded=1;whiteSpace=wrap;html=1;fillColor=#FFFFFF;fontColor=#000000;" vertex="1" parent="1">
          <mxGeometry x="960" y="380" width="170" height="40" as="geometry" />
        </mxCell>
        <mxCell id="pnfSxAVqBlWatADq52Bv-63" value="Same functionality&lt;br&gt;But without Threading" style="text;html=1;align=center;verticalAlign=middle;resizable=0;points=[];autosize=1;strokeColor=none;fillColor=none;" vertex="1" parent="1">
          <mxGeometry x="900" y="680" width="140" height="40" as="geometry" />
        </mxCell>
      </root>
    </mxGraphModel>
  </diagram>
</mxfile>
